<?xml version="1.0" encoding="iso-8859-1"?>
<!-- Uploaded to: SVG Repo, www.svgrepo.com, Generator: SVG Repo Mixer Tools -->
<svg height="800px" width="800px" version="1.1" id="Layer_1" xmlns="http://www.w3.org/2000/svg" xmlns:xlink="http://www.w3.org/1999/xlink" 
	 viewBox="0 0 297 297" xml:space="preserve">
<g>
	<g>
		<g>
			<g>
				<g>
					<g>
						<circle style="fill:#17AB93;" cx="148.5" cy="148.5" r="148.5"/>
					</g>
				</g>
			</g>
		</g>
	</g>
	<path style="fill:#128771;" d="M293.809,117.773l-57.291-57.291L108.167,189.2l1.268,48l58.573,58.524
		C240.802,286.171,297,223.901,297,148.5C297,137.964,295.895,127.688,293.809,117.773z"/>
	<g>
		<g>
			<path style="fill:#C5EAD8;" d="M200.05,78.716H72.392c-6.848,0-9.028,9.232-2.902,12.294l78.844,39.422"/>
		</g>
		<g>
			<polygon style="fill:#9BBCAA;" points="200.049,78.716 148.167,78.716 148.167,130.349 148.333,130.432 			"/>
		</g>
		<g>
			<path style="fill:#9BBCAA;" d="M218.284,96.951v127.657c0,6.848-9.232,9.027-12.294,2.902l-39.422-78.844L218.284,96.951z"/>
		</g>
		<g>
			<path style="fill:#C5EAD8;" d="M105.557,170.362l-41.791,5.97c-6.254,0.893-7.92,9.145-2.503,12.396l27.942,16.766
				c0.944,0.567,1.735,1.357,2.301,2.301l16.765,27.943c3.25,5.417,11.502,3.75,12.396-2.503l5.97-41.791
				c0.299-2.091-0.404-4.2-1.898-5.693l-13.49-13.49C109.757,170.767,107.647,170.063,105.557,170.362z"/>
		</g>
		<g>
			<path style="fill:#FFFFFF;" d="M202.812,69.323l-82.248,82.248c-1.896,1.896-3.687,3.893-5.366,5.983l-16.48,20.516
				c-4.595,5.72-13.262,23.099-8.075,28.286l0,0c5.188,5.188,22.567-3.48,28.286-8.075l20.516-16.48
				c2.09-1.679,4.087-3.47,5.983-5.366l82.248-82.248c6.866-6.866,15.707-26.84,8.841-33.706l0,0
				C229.652,53.616,209.679,62.457,202.812,69.323z"/>
		</g>
		<g>
			<path style="fill:#D0D5D9;" d="M236.518,60.482L236.518,60.482c-6.866-6.866-26.84,1.975-33.706,8.841l-54.645,54.645v49.73
				l79.51-79.51C234.544,87.322,243.384,67.348,236.518,60.482z"/>
		</g>
	</g>
</g>
</svg>